<svg width="36" height="34" viewBox="0 0 36 34" fill="none" xmlns="http://www.w3.org/2000/svg">
<path d="M3.43751 27.4041L12.4692 33.9118C12.6878 34.0684 12.9972 34.0083 13.1357 33.7788L17.6039 26.4664C17.7835 26.1725 18.2141 26.1725 18.3937 26.4664L22.8598 33.7788C23.0005 34.0083 23.3077 34.0706 23.5263 33.9118L32.5601 27.4041C32.7787 27.2474 32.8155 26.9363 32.638 26.7346L27.0057 20.2612C26.7785 20.0016 26.9126 19.594 27.2502 19.5146L35.6436 17.562C35.9076 17.4998 36.0612 17.2295 35.9768 16.9741L32.5277 6.44764C32.4433 6.19231 32.1577 6.06357 31.9088 6.16656L23.9612 9.47942C23.6409 9.61245 23.2926 9.36141 23.3207 9.01811L24.0412 0.495642C24.0629 0.227437 23.8508 0 23.5804 0H12.4173C12.1468 0 11.9348 0.229583 11.9564 0.495642L12.677 9.01811C12.7051 9.36141 12.3567 9.61245 12.0365 9.47942L4.08881 6.16656C3.83997 6.06357 3.55435 6.19231 3.46996 6.44764L0.0230243 16.9763C-0.0613641 17.2316 0.0944298 17.502 0.35625 17.5642L8.74965 19.5167C9.0872 19.5961 9.22136 20.0016 8.99416 20.2634L3.36177 26.7368C3.18434 26.9406 3.22113 27.2496 3.43967 27.4062L3.43751 27.4041Z" fill="#1BE400"/>
</svg>
